<?xml version="1.0" encoding="UTF-8"?><svg id="Layer_1" xmlns="http://www.w3.org/2000/svg" viewBox="0 0 100 79.25"><path d="m7.03,79.25c-1.39,0-2.77-.41-3.95-1.22-1.93-1.31-3.08-3.48-3.08-5.81V7.03C0,4.7,1.15,2.52,3.08,1.21,5-.09,7.45-.36,9.62.49l87.29,34.58c1.87.74,3.09,2.53,3.09,4.55,0,2.02-1.21,3.81-3.09,4.55L9.62,78.76c-.84.33-1.72.49-2.59.49Zm.82-71.02v62.79l79.25-31.4L7.85,8.23Z" style="fill:#fff;"/><path d="m3.92,39.63v-11.3c0-.64.64-1.08,1.24-.84l14.71,5.83,13.82,5.48c.76.3.76,1.38,0,1.68l-13.82,5.48-14.71,5.83c-.59.24-1.24-.2-1.24-.84v-11.3Z" style="fill:#fff;"/></svg>