<?xml version="1.0" encoding="UTF-8"?><svg id="Layer_1" xmlns="http://www.w3.org/2000/svg" viewBox="0 0 200 91.6"><path d="m112.5,35.13h-2.47v7.01h2.37c1.18,0,2.13-.35,2.84-1.06s1.06-1.59,1.06-2.64c0-1.1-.32-1.93-.95-2.48s-1.58-.83-2.85-.83Z" style="fill:#fff;"/><path d="m136.7,36.68c-.06-.24-.12-.54-.16-.91h-.13c-.06.34-.12.63-.18.88-.06.25-.14.52-.24.83l-2.7,8.48h6.33l-2.67-8.41c-.1-.34-.18-.62-.25-.86Z" style="fill:#fff;"/><path d="m62.17,35.48h-2.67v15.36h2.7c2.37,0,4.22-.71,5.57-2.13s2.02-3.35,2.02-5.79c0-2.31-.67-4.12-2-5.45-1.33-1.32-3.21-1.99-5.62-1.99Z" style="fill:#fff;"/><path d="m154.22,0H45.78C20.5,0,0,20.5,0,45.78v.05c0,25.28,20.5,45.78,45.78,45.78h108.44c25.28,0,45.78-20.5,45.78-45.78v-.05C200,20.5,179.5,0,154.22,0Zm-82.21,51.88c-2.35,2.25-5.48,3.38-9.38,3.38h-8.58v-24.23h8.58c4.3,0,7.53.98,9.68,2.95,2.15,1.97,3.23,4.92,3.23,8.86s-1.17,6.79-3.52,9.04Zm27.29-7.11c0,3.64-.85,6.37-2.54,8.19-1.7,1.82-4.24,2.73-7.63,2.73s-5.76-.89-7.4-2.66c-1.64-1.77-2.47-4.46-2.47-8.05v-13.94h5.47v14.06c0,1.96.38,3.43,1.15,4.41.77.98,1.91,1.47,3.45,1.47s2.64-.47,3.39-1.42,1.12-2.37,1.12-4.26v-14.26h5.46v13.73Zm18.79,10.49l-3.23-5.96c-.52-.97-1.04-1.7-1.56-2.2-.52-.5-1.12-.78-1.8-.84h-1.47v9h-5.46v-24.23h8.65c2.94,0,5.14.57,6.61,1.71,1.47,1.14,2.21,2.86,2.21,5.14,0,1.61-.47,3-1.42,4.17-.95,1.17-2.24,2.02-3.89,2.58v.07c.72.23,1.39.7,2.02,1.42s1.16,1.47,1.6,2.25l3.9,6.89h-6.17Zm24.43,0l-1.64-5.05h-8.78l-1.62,5.05h-5.91l8.82-24.23h6.47l8.62,24.23h-5.95Z" style="fill:#fff;"/></svg>