<?xml version="1.0" encoding="UTF-8"?><svg id="Layer_1" xmlns="http://www.w3.org/2000/svg" viewBox="0 0 100 100"><path d="m66.18,0h-32.36C15.14,0,0,15.14,0,33.82v32.36c0,18.68,15.14,33.82,33.82,33.82h32.36c18.68,0,33.82-15.14,33.82-33.82v-32.36C100,15.14,84.86,0,66.18,0Zm1.19,67.5c-4.56,4.37-10.63,6.56-18.22,6.56h-16.66V27.03h16.66c8.35,0,14.62,1.91,18.79,5.72,4.18,3.82,6.26,9.55,6.26,17.2s-2.28,13.17-6.84,17.55Z" style="fill:#161e35;"/><path d="m48.26,35.66h-5.18v29.81h5.25c4.59,0,8.19-1.38,10.81-4.13s3.92-6.5,3.92-11.25c0-4.48-1.3-8.01-3.89-10.58-2.59-2.57-6.23-3.85-10.9-3.85Z" style="fill:#161e35;"/></svg>